<?xml version="1.0" standalone="no"?>
<!DOCTYPE svg PUBLIC "-//W3C//DTD SVG 20010904//EN"
 "http://www.w3.org/TR/2001/REC-SVG-20010904/DTD/svg10.dtd">
<svg version="1.0" xmlns="http://www.w3.org/2000/svg"
 width="48" height="48" viewBox="0 0 48 48"
 preserveAspectRatio="xMidYMid meet">

<g transform="translate(0.000000,48.000000) scale(0.0400000,-0.0400000)"
fill="#000000" stroke="none">
<path d="M30 1032 c0 -5 18 -14 40 -21 24 -7 49 -24 64 -44 13 -18 99 -188
192 -380 92 -191 172 -347 179 -347 6 0 44 68 85 151 41 83 78 152 81 155 3 2
37 -66 75 -151 38 -85 74 -155 80 -155 6 0 78 156 160 346 152 352 187 415
239 428 14 4 25 11 25 16 0 6 -50 10 -125 10 -119 0 -160 -11 -96 -25 40 -9
65 -38 56 -67 -9 -29 -216 -511 -224 -520 -7 -8 -121 234 -121 256 0 29 127
270 157 297 15 15 38 30 51 34 52 15 15 25 -98 25 -72 0 -120 -4 -120 -10 0
-5 11 -12 24 -16 14 -3 32 -14 42 -25 16 -18 16 -21 -1 -66 -10 -27 -34 -78
-55 -116 l-37 -67 -36 82 c-69 158 -70 170 -6 189 21 7 39 16 39 21 0 4 -72 8
-160 8 -149 0 -200 -10 -132 -25 51 -11 89 -64 163 -229 38 -87 69 -163 67
-170 -2 -6 -25 -53 -52 -105 l-48 -94 -35 64 c-131 243 -233 452 -233 477 0
33 13 47 53 57 63 16 17 25 -133 25 -88 0 -160 -4 -160 -8z"/>
</g>
</svg>
