<?xml version="1.0" standalone="no"?>
<!DOCTYPE svg PUBLIC "-//W3C//DTD SVG 1.0//EN" "http://www.w3.org/TR/2001/REC-SVG-20010904/DTD/svg10.dtd">
<svg xmlns="http://www.w3.org/2000/svg" xmlns:xlink="http://www.w3.org/1999/xlink" id="body_1" width="250" height="34">

<g transform="matrix(0.08183306 0 0 0.08183306 -0 0.12111382)">
	<g transform="matrix(0.1 0 -0 -0.1 0 414)">
        <path d="M29990 3859C 27787 3699 25926 3276 24220 2548C 22893 1982 21670 1198 20840 383L20840 383L20685 231L21239 230L21793 230L21944 374C 22133 554 22221 634 22385 775C 23639 1853 25250 2706 27075 3255C 27980 3528 29028 3742 29910 3835C 30226 3868 30221 3867 30160 3867C 30130 3867 30053 3863 29990 3859z" stroke="none" fill="#000000" fill-rule="nonzero" />
        <path d="M9817 2375C 9703 2235 9610 2116 9610 2111C 9610 2106 9768 1886 9960 1621C 10153 1357 10310 1138 10310 1135C 10310 1132 9977 1130 9571 1130L9571 1130L8832 1130L8653 939C 8555 834 8474 744 8472 739C 8470 734 8919 730 9539 730L9539 730L10609 730L10791 480L10973 230L11387 230C 11742 230 11800 232 11793 244C 11778 270 10035 2629 10030 2629C 10027 2630 9932 2515 9817 2375z" stroke="none" fill="#000000" fill-rule="nonzero" />
        <path d="M1045 2533C 903 2522 758 2484 682 2439C 633 2410 563 2344 534 2298C 521 2278 501 2233 489 2198C 469 2142 466 2109 462 1905C 457 1650 467 1556 505 1473C 550 1373 658 1281 776 1239C 918 1190 910 1190 2046 1190L2046 1190L3110 1190L3110 930L3110 670L1754 670L397 670L403 633C 407 612 425 563 444 524C 509 393 633 302 815 254C 881 236 945 235 2080 235C 3192 235 3280 236 3351 253C 3561 302 3691 424 3729 608C 3747 694 3743 1182 3725 1255C 3680 1428 3544 1544 3313 1608L3313 1608L3215 1635L2163 1638L1110 1641L1110 1885L1110 2130L2390 2130C 3287 2130 3670 2133 3670 2141C 3670 2146 3658 2177 3643 2208C 3608 2278 3527 2367 3452 2417C 3374 2468 3227 2516 3108 2529C 3021 2539 1158 2543 1045 2533z" stroke="none" fill="#000000" fill-rule="nonzero" />
        <path d="M4710 1385L4710 230L5060 230L5410 230L5410 670L5410 1110L6349 1110C 6924 1110 7327 1114 7389 1120C 7745 1157 7938 1302 7985 1567C 8005 1677 8004 1960 7984 2058C 7928 2331 7688 2496 7300 2530C 7231 2536 6692 2540 5948 2540L5948 2540L4710 2540L4710 1385zM7262 2107C 7320 2084 7365 2035 7381 1978C 7388 1952 7391 1884 7388 1805C 7385 1697 7381 1669 7364 1640C 7338 1595 7292 1564 7229 1551C 7196 1544 6888 1540 6295 1540L6295 1540L5410 1540L5410 1835L5410 2131L6313 2128C 7157 2125 7218 2124 7262 2107z" stroke="none" fill="#000000" fill-rule="nonzero" />
        <path d="M13005 2533C 12728 2510 12528 2390 12457 2204C 12435 2145 12435 2144 12432 1410C 12430 909 12433 659 12440 623C 12477 445 12618 316 12840 258L12840 258L12925 235L14100 235L15275 235L15363 257C 15511 295 15595 350 15661 452C 15698 509 15740 616 15740 652C 15740 669 15687 670 14440 670L14440 670L13140 670L13140 1400L13140 2130L14445 2130L15750 2130L15731 2180C 15652 2388 15469 2501 15161 2530C 15066 2539 13111 2542 13005 2533z" stroke="none" fill="#000000" fill-rule="nonzero" />
        <path d="M16700 2335L16700 2130L18275 2130L19850 2130L19848 2333L19845 2535L18273 2538L16700 2540L16700 2335z" stroke="none" fill="#000000" fill-rule="nonzero" />
        <path d="M20765 2531C 20770 2522 22006 1614 22037 1597C 22043 1593 22115 1633 22202 1688C 22286 1742 22420 1826 22500 1875C 22580 1923 22646 1964 22648 1965C 22651 1968 21993 2441 21886 2514L21886 2514L21847 2540L21303 2540C 20968 2540 20761 2536 20765 2531z" stroke="none" fill="#000000" fill-rule="nonzero" />
        <path d="M16700 995L16700 230L18255 230L19810 230L19810 450L19810 670L18610 670L17410 670L17410 1015L17410 1360L18110 1360L18810 1360L18810 1560L18810 1760L17755 1760L16700 1760L16700 995z" stroke="none" fill="#000000" fill-rule="nonzero" />
        <path d="M23305 1258C 23113 1120 22890 951 22890 942C 22891 938 23109 776 23376 582L23376 582L23861 230L24411 232L24961 235L24211 788C 23798 1092 23454 1343 23447 1346C 23440 1348 23376 1309 23305 1258z" stroke="none" fill="#000000" fill-rule="nonzero" />
	</g>
</g>
</svg>